<svg width="26" height="30" viewBox="0 0 26 30" fill="none" xmlns="http://www.w3.org/2000/svg">
<path d="M16.7708 2.5121L17.0984 2.02156L17.42 1.5376L18.1442 0.451693C18.2328 0.318126 18.1969 0.138439 18.0645 0.0491946C17.9298 -0.0400499 17.7501 -0.00411238 17.6608 0.130054L16.8852 1.29442L16.5587 1.78377L16.2275 2.27971C15.1782 1.87302 14.0084 1.64481 12.7727 1.64481C11.5383 1.64481 10.3685 1.87302 9.31916 2.27971L8.98974 1.78377L8.66331 1.29442L7.88646 0.129455C7.79781 -0.00411233 7.61753 -0.0400498 7.48336 0.0485957C7.35039 0.137241 7.31446 0.317527 7.4031 0.451094L8.12664 1.537L8.44948 2.02096L8.77711 2.5115C6.3124 3.6591 4.64551 5.83331 4.64551 8.32198H20.9024C20.9024 5.83391 19.2355 3.6597 16.7708 2.5121ZM9.29041 5.99982C8.80825 5.99982 8.41893 5.6099 8.41893 5.12894C8.41893 4.64798 8.80825 4.25866 9.29041 4.25866C9.77137 4.25866 10.1607 4.64798 10.1607 5.12894C10.1607 5.6099 9.77137 5.99982 9.29041 5.99982ZM16.2569 5.99982C15.7759 5.99982 15.3866 5.6099 15.3866 5.12894C15.3866 4.64798 15.7759 4.25866 16.2569 4.25866C16.739 4.25866 17.1284 4.64798 17.1284 5.12894C17.1284 5.6099 16.739 5.99982 16.2569 5.99982Z" fill="#FF9800"/>
<path d="M4.77069 9.48395H4.64551V10.9322V12.114V22.2579C4.64551 23.2719 5.46967 24.0967 6.4837 24.0967H7.81099C7.76667 24.25 7.74151 24.4123 7.74151 24.58V24.6771V25.2575V28.2582C7.74151 29.2196 8.52195 30 9.48388 30C10.4458 30 11.2256 29.2196 11.2256 28.2582V25.2575V24.6771V24.58C11.2256 24.4129 11.1999 24.25 11.1568 24.0967H14.3911C14.3468 24.25 14.3222 24.4123 14.3222 24.58V24.6771V25.2575V28.2582C14.3222 29.2196 15.1027 30 16.064 30C17.0253 30 17.8058 29.2196 17.8058 28.2582V25.2575V24.6771V24.58C17.8058 24.4129 17.7812 24.25 17.7369 24.0967H19.0636C20.0776 24.0967 20.9024 23.2719 20.9024 22.2579V12.114V10.9322V9.48395H20.7772H4.77069V9.48395Z" fill="#FF9800"/>
<path d="M1.74176 9.48395C0.779841 9.48395 0 10.2632 0 11.2263V18.6767C0 19.6381 0.779841 20.4185 1.74176 20.4185C2.70309 20.4185 3.48353 19.6381 3.48353 18.6767V11.2257C3.48353 10.2632 2.70369 9.48395 1.74176 9.48395Z" fill="#FF9800"/>
<path d="M23.8061 9.48395C22.8436 9.48395 22.0643 10.2632 22.0643 11.2263V18.6767C22.0643 19.6381 22.8436 20.4185 23.8061 20.4185C24.7674 20.4185 25.5467 19.6381 25.5467 18.6767V11.2257C25.5467 10.2632 24.7674 9.48395 23.8061 9.48395Z" fill="#FF9800"/>
</svg>
