<svg width="41" height="30" viewBox="0 0 41 30" fill="none" xmlns="http://www.w3.org/2000/svg">
<path d="M10.3545 5.57718C9.84483 5.1539 9.18827 4.94966 8.52843 5.00915C7.86859 5.06864 7.25915 5.38701 6.83341 5.89463L0.582382 13.3959C0.206174 13.8448 0 14.4119 0 14.9977C0 15.5834 0.206174 16.1505 0.582382 16.5995L6.83341 24.1007C7.04312 24.3548 7.30097 24.5649 7.59216 24.719C7.88334 24.8731 8.20211 24.9681 8.53014 24.9986C8.85817 25.029 9.18899 24.9944 9.50357 24.8966C9.81816 24.7988 10.1103 24.6397 10.3632 24.4287C10.6162 24.2176 10.8249 23.9585 10.9773 23.6665C11.1298 23.3745 11.2231 23.0552 11.2518 22.727C11.2804 22.3988 11.244 22.0682 11.1444 21.7542C11.0449 21.4401 10.8843 21.1488 10.6718 20.8971L5.75413 14.9978L10.6719 9.09835C11.0966 8.58925 11.3017 7.93235 11.2422 7.27205C11.1827 6.61175 10.8634 6.00212 10.3545 5.57718Z" fill="#FF9800"/>
<path d="M22.9932 0.0440655C22.3437 -0.0789122 21.6719 0.0578607 21.1221 0.424983C20.5724 0.792106 20.1886 1.36027 20.0533 2.00734L15.0525 27.0114C14.9876 27.3334 14.987 27.665 15.0507 27.9872C15.1143 28.3095 15.241 28.616 15.4234 28.8891C15.6058 29.1623 15.8404 29.3967 16.1136 29.5789C16.3869 29.7612 16.6935 29.8877 17.0157 29.9511C17.178 29.9845 17.3433 30.0009 17.509 30C18.0865 29.9991 18.6458 29.7981 19.0919 29.4314C19.5379 29.0646 19.8432 28.5546 19.9556 27.9882L24.9565 2.98402C25.0214 2.66201 25.022 2.33036 24.9584 2.0081C24.8947 1.68585 24.7681 1.37934 24.5857 1.10617C24.4032 0.832994 24.1687 0.598546 23.8954 0.41628C23.6221 0.234015 23.3155 0.107522 22.9932 0.0440655V0.0440655Z" fill="#FF9800"/>
<path d="M39.4266 13.3959L33.1756 5.89463C32.9659 5.64055 32.708 5.43043 32.4168 5.27635C32.1256 5.12226 31.8069 5.02725 31.4788 4.99677C31.1508 4.9663 30.82 5.00096 30.5054 5.09877C30.1908 5.19658 29.8987 5.3556 29.6458 5.5667C29.3928 5.77779 29.1841 6.0368 29.0316 6.32883C28.8792 6.62086 28.7859 6.94014 28.7572 7.26833C28.7286 7.59652 28.765 7.92715 28.8646 8.24119C28.9641 8.55524 29.1247 8.84651 29.3372 9.09827L34.2549 14.9978L29.3371 20.8972C29.1246 21.1489 28.964 21.4402 28.8644 21.7542C28.7649 22.0683 28.7284 22.3989 28.7571 22.7271C28.7858 23.0553 28.879 23.3746 29.0315 23.6666C29.184 23.9586 29.3927 24.2176 29.6456 24.4287C29.8986 24.6398 30.1907 24.7989 30.5053 24.8967C30.8199 24.9945 31.1507 25.0291 31.4787 24.9987C31.8068 24.9682 32.1255 24.8732 32.4167 24.7191C32.7079 24.565 32.9657 24.3549 33.1755 24.1008L39.4266 16.5995C39.8028 16.1505 40.009 15.5834 40.009 14.9977C40.009 14.4119 39.8028 13.8448 39.4266 13.3959V13.3959Z" fill="#FF9800"/>
</svg>
