<svg width="34" height="30" viewBox="0 0 34 30" fill="none" xmlns="http://www.w3.org/2000/svg">
<path d="M13.3473 16.0886C12.7045 16.7966 12.5469 17.3046 11.7053 18.6349C12.2488 19.0145 13.2958 19.8923 14.0211 21.4037C15.4697 20.5728 16.1451 20.4459 16.9127 19.7996C21.9236 15.5792 34.1976 0.451108 33.7749 0.0134779C33.3285 -0.451735 17.7595 11.2491 13.3473 16.0886Z" fill="#FF9800"/>
<path d="M10.2572 19.8101C8.07972 19.4252 5.93189 20.8017 4.49725 24.2409C3.06057 27.6799 0.496952 29.0568 0 28.9726C2.67599 29.9406 10.8353 32.4167 12.8636 22.9905C12.0033 20.7297 10.2572 19.8101 10.2572 19.8101Z" fill="#FF9800"/>
</svg>
