<svg width="34" height="25" viewBox="0 0 34 25" fill="none" xmlns="http://www.w3.org/2000/svg">
<path fill-rule="evenodd" clip-rule="evenodd" d="M33.6956 12.5C33.6956 11.5995 32.9657 10.8696 32.0652 10.8696H1.63043C0.729969 10.8696 0 11.5995 0 12.5C0 13.4005 0.729969 14.1304 1.63043 14.1304H32.0652C32.9657 14.1304 33.6956 13.4005 33.6956 12.5Z" fill="white"/>
<path fill-rule="evenodd" clip-rule="evenodd" d="M33.6956 1.63043C33.6956 0.729971 32.9657 0 32.0652 0H1.63043C0.729969 0 0 0.729971 0 1.63043C0 2.5309 0.729969 3.26087 1.63043 3.26087H32.0652C32.9657 3.26087 33.6956 2.5309 33.6956 1.63043Z" fill="white"/>
<path fill-rule="evenodd" clip-rule="evenodd" d="M33.6956 23.3696C33.6956 22.4691 32.9657 21.7391 32.0652 21.7391H1.63043C0.729969 21.7391 0 22.4691 0 23.3696C0 24.27 0.729969 25 1.63043 25H32.0652C32.9657 25 33.6956 24.27 33.6956 23.3696Z" fill="white"/>
</svg>
